<?xml version="1.0" encoding="UTF-8" standalone="no"?>
<!DOCTYPE svg PUBLIC "-//W3C//DTD SVG 1.1//EN" "http://www.w3.org/Graphics/SVG/1.1/DTD/svg11.dtd">
<svg width="100%" height="100%" viewBox="0 0 4000 7740" version="1.1" xmlns="http://www.w3.org/2000/svg" xmlns:xlink="http://www.w3.org/1999/xlink" xml:space="preserve" xmlns:serif="http://www.serif.com/" style="fill-rule:evenodd;clip-rule:evenodd;stroke-linejoin:round;stroke-miterlimit:1.41421;">
    <g id="Black">
        <path d="M949,225C507.406,-157.952 36.409,-50.86 -0.13,463L-0.13,7272.92C16.16,7682.65 328.799,7797.55 679.065,7693.88C759.438,7670.09 841.791,7634.8 923,7588.92L949,225Z"/>
        <g transform="matrix(1.04491,0,0,1.40888,-179.615,-1579.34)">
            <path d="M1576.68,3924.31L949,3862.56L988.809,4632.45C1006.89,4630.5 1061.3,4576.67 1068.01,4565.29C1086.22,4534.43 1129.89,4521.59 1141.32,4521.66C1161.64,4521.79 1189.85,4531.2 1194.07,4533.34C1404.62,4639.89 2039.54,4907.2 2538.59,5172.26C2551.21,5178.96 2566.06,5201.76 2565.26,5209.18C2564.45,5216.68 2548.97,5234.05 2533.07,5244.97L1172.23,5718.03C1148.31,5724.18 1120.87,5716.14 1095.42,5700.77C1046.25,5661.14 1058.43,5624.04 1055.42,5614.36L1007.38,6523.84L3656.3,5606.81C4142.78,5421.73 4073.71,5070.69 3649.09,4903.93L1576.68,3924.31Z"/>
        </g>
        <g transform="matrix(0.909972,0,0,1.40888,-51.5634,-5087.34)">
            <path d="M3624.91,4909.61L996.254,3721.31L988.809,4632.45C1006.89,4630.5 1100.56,4696.29 1099.55,4683.11C1096.02,4636.84 1186.31,4625.96 1210.55,4641.94C1242.4,4662.92 2021.91,4999.15 2423.2,5166.58C2452.49,5178.8 2456.43,5223.15 2417.68,5239.29L1179.92,5686.8C1171.72,5688.9 1148.41,5685.47 1139.05,5682.21C1121.12,5675.98 1116.28,5664.73 1099.55,5654.64C1050.38,5615.01 1058.43,5624.04 1055.42,5614.36L1007.38,6523.84L1757.3,6457.84L1615.63,6390.3C1584.11,6360.78 1579.8,6334.97 1626.22,6316.09L1877.84,6214.29L3620.03,5594.74C4161.3,5413.59 4119.54,5044.91 3624.91,4909.61Z"/>
        </g>
    </g>
</svg>
